<svg width="24" height="24" viewBox="0 0 24 24" fill="none" xmlns="http://www.w3.org/2000/svg">
<g clip-path="url(#clip0_2_180)" filter="url(#filter0_d_2_180)">
<path d="M20 8C20 10.1217 19.1571 12.1566 17.6569 13.6569C16.1566 15.1571 14.1217 16 12 16C9.87827 16 7.84344 15.1571 6.34315 13.6569C4.84285 12.1566 4 10.1217 4 8C4 5.87827 4.84285 3.84344 6.34315 2.34315C7.84344 0.842855 9.87827 0 12 0C14.1217 0 16.1566 0.842855 17.6569 2.34315C19.1571 3.84344 20 5.87827 20 8V8ZM12 4C11.8736 4.00007 11.7486 4.02662 11.6331 4.07793C11.5176 4.12924 11.4141 4.20418 11.3293 4.29791C11.2446 4.39165 11.1803 4.5021 11.1408 4.62217C11.1013 4.74223 11.0874 4.86923 11.1 4.995L11.45 8.502C11.4618 8.63977 11.5248 8.76811 11.6266 8.86164C11.7285 8.95516 11.8617 9.00705 12 9.00705C12.1383 9.00705 12.2715 8.95516 12.3734 8.86164C12.4752 8.76811 12.5382 8.63977 12.55 8.502L12.9 4.995C12.9126 4.86923 12.8987 4.74223 12.8592 4.62217C12.8197 4.5021 12.7554 4.39165 12.6707 4.29791C12.5859 4.20418 12.4824 4.12924 12.3669 4.07793C12.2514 4.02662 12.1264 4.00007 12 4V4ZM12.002 10C11.7368 10 11.4824 10.1054 11.2949 10.2929C11.1074 10.4804 11.002 10.7348 11.002 11C11.002 11.2652 11.1074 11.5196 11.2949 11.7071C11.4824 11.8946 11.7368 12 12.002 12C12.2672 12 12.5216 11.8946 12.7091 11.7071C12.8966 11.5196 13.002 11.2652 13.002 11C13.002 10.7348 12.8966 10.4804 12.7091 10.2929C12.5216 10.1054 12.2672 10 12.002 10Z" fill="#495057"/>
</g>
<defs>
<filter id="filter0_d_2_180" x="0" y="0" width="24" height="24" filterUnits="userSpaceOnUse" color-interpolation-filters="sRGB">
<feFlood flood-opacity="0" result="BackgroundImageFix"/>
<feColorMatrix in="SourceAlpha" type="matrix" values="0 0 0 0 0 0 0 0 0 0 0 0 0 0 0 0 0 0 127 0" result="hardAlpha"/>
<feOffset dy="4"/>
<feGaussianBlur stdDeviation="2"/>
<feComposite in2="hardAlpha" operator="out"/>
<feColorMatrix type="matrix" values="0 0 0 0 0 0 0 0 0 0 0 0 0 0 0 0 0 0 0.25 0"/>
<feBlend mode="normal" in2="BackgroundImageFix" result="effect1_dropShadow_2_180"/>
<feBlend mode="normal" in="SourceGraphic" in2="effect1_dropShadow_2_180" result="shape"/>
</filter>
<clipPath id="clip0_2_180">
<rect width="16" height="16" fill="white" transform="translate(4)"/>
</clipPath>
</defs>
</svg>
